<?xml version="1.0" encoding="utf-8"?>
<!-- Generator: Adobe Illustrator 16.0.0, SVG Export Plug-In . SVG Version: 6.00 Build 0)  -->
<!DOCTYPE svg PUBLIC "-//W3C//DTD SVG 1.1//EN" "http://www.w3.org/Graphics/SVG/1.1/DTD/svg11.dtd">
<svg version="1.1" id="Layer_1" xmlns="http://www.w3.org/2000/svg" xmlns:xlink="http://www.w3.org/1999/xlink" x="0px" y="0px"
	 width="1400px" height="1000px" viewBox="0 0 1400 1000" enable-background="new 0 0 1400 1000" xml:space="preserve">
<g>
	
		<image overflow="visible" opacity="0.35" enable-background="new    " width="1490" height="736" xlink:href="D9B5EC32FA35B7A8.png"  transform="matrix(1 0 0 1 -45 317)">
	</image>
	<g>
		
			<linearGradient id="SVGID_1_" gradientUnits="userSpaceOnUse" x1="505.9995" y1="688.9033" x2="505.9996" y2="1332.9131" gradientTransform="matrix(1 0 0 1 194 -332.9131)">
			<stop  offset="0" style="stop-color:#BFFFEF"/>
			<stop  offset="0.5757" style="stop-color:#53C1D4"/>
			<stop  offset="1" style="stop-color:#0091BF"/>
		</linearGradient>
		<path fill="url(#SVGID_1_)" d="M1400,1000c0,0,0-420.034,0-420.045c0-5.521-19.371-11.73-22.338-12.646
			c-19.07-5.889-39.168-7.56-58.793-9.041c-63.104-4.765-126.396-1.688-189.573-3.984c-38.579-1.403-79.593-0.959-117.711-8.199
			c-53.488-10.158-106.137-24.894-158.787-39.506c-53.992-14.986-107.7-31.152-161.521-46.913
			c-54.921-16.083-109.761-32.522-164.847-47.854c-49.193-13.689-98.478-27.075-148.196-38.054
			c-36.678-8.099-73.732-15.744-111.127-17.407c-3.324-0.149-6.916-0.36-10.243-0.36C64.533,355.992,0,510.215,0,510.215V1000H1400z
			"/>
	</g>
</g>
</svg>
