<?xml version="1.0" encoding="utf-8"?>
<!-- Generator: Adobe Illustrator 16.0.0, SVG Export Plug-In . SVG Version: 6.00 Build 0)  -->
<!DOCTYPE svg PUBLIC "-//W3C//DTD SVG 1.1//EN" "http://www.w3.org/Graphics/SVG/1.1/DTD/svg11.dtd">
<svg version="1.1" xmlns="http://www.w3.org/2000/svg" xmlns:xlink="http://www.w3.org/1999/xlink" x="0px" y="0px" width="960px"
	 height="560px" viewBox="0 0 960 560" enable-background="new 0 0 960 560" xml:space="preserve">
<g id="Layer_2">
	<ellipse fill="#F7F716" stroke="#000000" stroke-miterlimit="10" cx="611.667" cy="244.333" rx="115.667" ry="119.333"/>
	<ellipse fill="#2D2B2B" stroke="#000000" stroke-miterlimit="10" cx="611.834" cy="243" rx="106.5" ry="109.667"/>
	<polygon fill="#F7F716" stroke="#000000" stroke-miterlimit="10" points="677.087,210.382 660.517,202.168 644.357,211.162 
		647.048,192.865 633.502,180.275 651.735,177.18 659.522,160.407 668.1,176.791 686.459,179.014 673.527,192.234 	"/>
</g>
<g id="Layer_1">
	<path fill="#1F8EEA" stroke="#000000" stroke-miterlimit="10" d="M567.74,319.5H518.5l33.5-64.33l5.27-11.05
		c-0.18,3.62-0.27,7.31-0.27,11.05C557,280.27,561.1,303.02,567.74,319.5z"/>
	<path fill="#1F8EEA" stroke="#000000" stroke-miterlimit="10" d="M619.93,319.5c6.641-16.48,10.74-39.23,10.74-64.33
		c0-7.73-0.39-15.24-1.12-22.41l42.95,86.74H619.93z"/>
	<path fill="#D66767" stroke="#000000" stroke-miterlimit="10" d="M630.67,255.17c0,25.1-4.1,47.85-10.74,64.33
		c-6.67,16.57-15.899,26.83-26.1,26.83s-19.43-10.26-26.09-26.83C561.1,303.02,557,280.27,557,255.17c0-3.74,0.09-7.43,0.27-11.05
		c1.711-35.11,11.49-64.07,24.61-75.21L595,124.5l0.5-3l14.12,51.28c9.8,11.53,17.22,33.43,19.93,59.98
		C630.28,239.93,630.67,247.44,630.67,255.17z"/>
	<polygon fill="#D0EEEF" stroke="#000000" stroke-miterlimit="10" points="595,200.5 585.932,196.708 584.682,186.958 592.5,181 
		601.568,184.792 602.818,194.542 	"/>
	<polygon fill="#D0EEEF" stroke="#000000" stroke-miterlimit="10" points="595,232.5 585.932,228.708 584.682,218.958 592.5,213 
		601.568,216.792 602.818,226.542 	"/>
	<polygon fill="#D0EEEF" stroke="#000000" stroke-miterlimit="10" points="595,266.5 585.932,262.708 584.682,252.958 592.5,247 
		601.568,250.792 602.818,260.542 	"/>
	<polygon fill="#D0EEEF" stroke="#000000" stroke-miterlimit="10" points="595,300.5 585.932,296.707 584.682,286.957 592.5,281 
		601.568,284.793 602.818,294.543 	"/>
</g>
</svg>
