<?xml version="1.0" encoding="utf-8"?>
<!-- Generator: Adobe Illustrator 16.0.0, SVG Export Plug-In . SVG Version: 6.00 Build 0)  -->
<!DOCTYPE svg PUBLIC "-//W3C//DTD SVG 1.1//EN" "http://www.w3.org/Graphics/SVG/1.1/DTD/svg11.dtd">
<svg version="1.1" id="Layer_1" xmlns="http://www.w3.org/2000/svg" xmlns:xlink="http://www.w3.org/1999/xlink" x="0px" y="0px"
	 width="873px" height="581px" viewBox="0 0 873 581" enable-background="new 0 0 873 581" xml:space="preserve">
<linearGradient id="SVGID_1_" gradientUnits="userSpaceOnUse" x1="1.5" y1="11" x2="872.5" y2="11">
	<stop  offset="0" style="stop-color:#A9AAA9"/>
	<stop  offset="0.9997" style="stop-color:#C6C6C6"/>
</linearGradient>
<rect x="1.5" y="0.5" fill="url(#SVGID_1_)" stroke="#111111" stroke-miterlimit="10" width="871" height="21"/>
<rect x="0.5" y="21.5" fill="#F9F9F9" stroke="#131413" stroke-miterlimit="10" width="871" height="559"/>
<ellipse fill="#DD673E" cx="15.425" cy="11.719" rx="8.012" ry="7.645"/>
<ellipse fill="#F9AE08" cx="34.882" cy="11.719" rx="8.012" ry="7.645"/>
<ellipse fill="#057F05" cx="54.339" cy="11.719" rx="8.012" ry="7.645"/>
<rect x="6" y="31" fill="none" stroke="#031C33" stroke-width="4" stroke-miterlimit="10" width="180" height="533"/>
<rect x="15" y="41" fill="#D7F0F4" width="155" height="69"/>
<rect x="15" y="125" fill="#D7F0F4" width="155" height="252"/>
<rect x="15" y="397" fill="#D7F0F4" width="155" height="144"/>
<line fill="none" stroke="#031C33" stroke-width="3" stroke-miterlimit="10" x1="216.5" y1="31" x2="216.5" y2="388"/>
<line fill="none" stroke="#031C33" stroke-width="3" stroke-miterlimit="10" x1="838" y1="388.5" x2="217" y2="388.5"/>
<rect x="232" y="357" fill="#C5EFC5" width="83" height="31"/>
<rect x="360" y="310" fill="#F6D2F7" width="83" height="78"/>
<rect x="495" y="261" fill="#8ACFF9" width="83" height="127"/>
<rect x="617" y="180" fill="#F2F78B" width="83" height="208"/>
<rect x="755" y="98" fill="#F98C7A" width="83" height="290"/>
<rect x="216" y="407" fill="none" stroke="#D97CF7" stroke-width="2" stroke-miterlimit="10" width="617" height="158"/>
<rect x="224" y="415" fill="#C5EFC5" width="599" height="20"/>
<rect x="224" y="445" fill="#F6D2F7" width="173" height="17"/>
<rect x="224" y="477" fill="#8ACFF9" width="230" height="17"/>
<rect x="224" y="507" fill="#F2F78B" width="91" height="17"/>
<rect x="224" y="534" fill="#F98C7A" width="230" height="16"/>
</svg>
