<?xml version="1.0" encoding="utf-8"?>
<!-- Generator: Adobe Illustrator 16.0.0, SVG Export Plug-In . SVG Version: 6.00 Build 0)  -->
<!DOCTYPE svg PUBLIC "-//W3C//DTD SVG 1.1//EN" "http://www.w3.org/Graphics/SVG/1.1/DTD/svg11.dtd">
<svg version="1.1" id="Layer_1" xmlns="http://www.w3.org/2000/svg" xmlns:xlink="http://www.w3.org/1999/xlink" x="0px" y="0px"
	 width="872px" height="580px" viewBox="75 11 872 580" enable-background="new 75 11 872 580" xml:space="preserve">
<g>
	
		<linearGradient id="SVGID_1_" gradientUnits="userSpaceOnUse" x1="-118.5" y1="1083" x2="752.5" y2="1083" gradientTransform="matrix(1 0 0 -1 194 1105)">
		<stop  offset="0" style="stop-color:#A9AAA9"/>
		<stop  offset="0.9997" style="stop-color:#C6C6C6"/>
	</linearGradient>
	<rect x="75.5" y="11.5" fill="url(#SVGID_1_)" stroke="#111111" stroke-miterlimit="10" width="871" height="21"/>
	
		<linearGradient id="SVGID_2_" gradientUnits="userSpaceOnUse" x1="87.5981" y1="395.2979" x2="547.4023" y2="1191.7021" gradientTransform="matrix(1 0 0 -1 194 1105)">
		<stop  offset="0" style="stop-color:#000000"/>
		<stop  offset="0.9944" style="stop-color:#005B97"/>
	</linearGradient>
	<rect x="76" y="32" fill="url(#SVGID_2_)" width="871" height="559"/>
	<ellipse fill="#DD673E" cx="89.425" cy="22.719" rx="8.012" ry="7.645"/>
	<ellipse fill="#F9AE08" cx="108.882" cy="22.719" rx="8.012" ry="7.645"/>
	<ellipse fill="#057F05" cx="128.339" cy="22.719" rx="8.012" ry="7.645"/>
	<path fill="#FFFFFF" d="M176.219,64.5c0,3.619-1.847,6.5-4.126,6.5h-70.149c-2.279,0-4.126-2.881-4.126-6.5l0,0
		c0-3.619,1.847-6.5,4.126-6.5h70.149C174.372,58,176.219,60.881,176.219,64.5L176.219,64.5z"/>
	<path fill="#10E3E8" d="M170.306,87.5c0,3.619-1.708,6.5-3.815,6.5h-64.858c-2.107,0-3.815-2.881-3.815-6.5l0,0
		c0-3.619,1.708-6.5,3.815-6.5h64.858C168.598,81,170.306,83.881,170.306,87.5L170.306,87.5z"/>
	<path fill="#FFFFFF" d="M228.296,110.5c0,3.619-3.074,6.5-6.867,6.5H104.685c-3.792,0-6.867-2.881-6.867-6.5l0,0
		c0-3.619,3.074-6.5,6.867-6.5h116.744C225.222,104,228.296,106.881,228.296,110.5L228.296,110.5z"/>
	<path fill="#B2B2B2" d="M228.296,132.5c0,3.619-3.074,6.5-6.867,6.5H104.685c-3.792,0-6.867-2.881-6.867-6.5l0,0
		c0-3.619,3.074-6.5,6.867-6.5h116.744C225.222,126,228.296,128.881,228.296,132.5L228.296,132.5z"/>
	<path fill="#F4ED9A" d="M375.941,132.5c0,3.619-3.075,6.5-6.867,6.5H252.331c-3.792,0-6.867-2.881-6.867-6.5l0,0
		c0-3.619,3.074-6.5,6.867-6.5h116.744C372.867,126,375.941,128.881,375.941,132.5L375.941,132.5z"/>
	<path fill="#FFFFFF" d="M375.941,110.5c0,3.619-3.075,6.5-6.867,6.5H252.331c-3.792,0-6.867-2.881-6.867-6.5l0,0
		c0-3.619,3.074-6.5,6.867-6.5h116.744C372.867,104,375.941,106.881,375.941,110.5L375.941,110.5z"/>
	<path fill="#0FEA0F" d="M308.414,87.5c0,3.619-3.074,6.5-6.867,6.5H184.803c-3.792,0-6.867-2.881-6.867-6.5l0,0
		c0-3.619,3.074-6.5,6.867-6.5h116.744C305.339,81,308.414,83.881,308.414,87.5L308.414,87.5z"/>
	<path fill="#E8103A" d="M446.902,87.5c0,3.619-3.074,6.5-6.867,6.5H323.292c-3.792,0-6.867-2.881-6.867-6.5l0,0
		c0-3.619,3.074-6.5,6.867-6.5h116.743C443.829,81,446.902,83.881,446.902,87.5L446.902,87.5z"/>
	<path fill="#0FEA0F" d="M584.247,87.5c0,3.619-3.073,6.5-6.867,6.5H460.637c-3.793,0-6.867-2.881-6.867-6.5l0,0
		c0-3.619,3.074-6.5,6.867-6.5H577.38C581.174,81,584.247,83.881,584.247,87.5L584.247,87.5z"/>
	<path fill="#E8C410" d="M316.425,64.5c0,3.619-3.074,6.5-6.867,6.5H192.814c-3.792,0-6.867-2.881-6.867-6.5l0,0
		c0-3.619,3.074-6.5,6.867-6.5h116.744C313.351,58,316.425,60.881,316.425,64.5L316.425,64.5z"/>
	<path fill="#BE10E8" d="M453.77,64.5c0,3.619-3.073,6.5-6.866,6.5H330.159c-3.792,0-6.867-2.881-6.867-6.5l0,0
		c0-3.619,3.074-6.5,6.867-6.5h116.743C450.696,58,453.77,60.881,453.77,64.5L453.77,64.5z"/>
	<path fill="#FFFFFF" d="M176.219,156.5c0,3.619-1.847,6.5-4.126,6.5h-70.149c-2.279,0-4.126-2.881-4.126-6.5l0,0
		c0-3.619,1.847-6.5,4.126-6.5h70.149C174.372,150,176.219,152.881,176.219,156.5L176.219,156.5z"/>
	<path fill="#10E3E8" d="M170.306,179.5c0,3.619-1.708,6.5-3.815,6.5h-64.858c-2.107,0-3.815-2.881-3.815-6.5l0,0
		c0-3.619,1.708-6.5,3.815-6.5h64.858C168.598,173,170.306,175.881,170.306,179.5L170.306,179.5z"/>
	<path fill="#FFFFFF" d="M228.296,202.5c0,3.619-3.074,6.5-6.867,6.5H104.685c-3.792,0-6.867-2.881-6.867-6.5l0,0
		c0-3.619,3.074-6.5,6.867-6.5h116.744C225.222,196,228.296,198.881,228.296,202.5L228.296,202.5z"/>
	<path fill="#B2B2B2" d="M228.296,224c0,3.619-3.074,7-6.867,7H104.685c-3.792,0-6.867-3.381-6.867-7l0,0c0-3.619,3.074-7,6.867-7
		h116.744C225.222,217,228.296,220.381,228.296,224L228.296,224z"/>
	<path fill="#F4ED9A" d="M375.941,224c0,3.619-3.074,7-6.868,7H252.331c-3.792,0-6.867-3.381-6.867-7l0,0c0-3.619,3.074-7,6.867-7
		h116.743C372.867,217,375.941,220.381,375.941,224L375.941,224z"/>
	<path fill="#FFFFFF" d="M375.941,202.5c0,3.619-3.074,6.5-6.868,6.5H252.331c-3.792,0-6.867-2.881-6.867-6.5l0,0
		c0-3.619,3.074-6.5,6.867-6.5h116.743C372.867,196,375.941,198.881,375.941,202.5L375.941,202.5z"/>
	<path fill="#0FEA0F" d="M308.414,179.5c0,3.619-3.074,6.5-6.867,6.5H184.803c-3.792,0-6.867-2.881-6.867-6.5l0,0
		c0-3.619,3.074-6.5,6.867-6.5h116.744C305.339,173,308.414,175.881,308.414,179.5L308.414,179.5z"/>
	<path fill="#E8103A" d="M446.902,179.5c0,3.619-3.074,6.5-6.867,6.5H323.292c-3.792,0-6.867-2.881-6.867-6.5l0,0
		c0-3.619,3.074-6.5,6.867-6.5h116.743C443.829,173,446.902,175.881,446.902,179.5L446.902,179.5z"/>
	<path fill="#0FEA0F" d="M584.247,179.5c0,3.619-3.073,6.5-6.867,6.5H460.637c-3.793,0-6.867-2.881-6.867-6.5l0,0
		c0-3.619,3.074-6.5,6.867-6.5H577.38C581.174,173,584.247,175.881,584.247,179.5L584.247,179.5z"/>
	<path fill="#E8C410" d="M316.425,156.5c0,3.619-3.074,6.5-6.867,6.5H192.814c-3.792,0-6.867-2.881-6.867-6.5l0,0
		c0-3.619,3.074-6.5,6.867-6.5h116.744C313.351,150,316.425,152.881,316.425,156.5L316.425,156.5z"/>
	<path fill="#BE10E8" d="M453.77,156.5c0,3.619-3.073,6.5-6.866,6.5H330.16c-3.793,0-6.867-2.881-6.867-6.5l0,0
		c0-3.619,3.074-6.5,6.867-6.5h116.743C450.696,150,453.77,152.881,453.77,156.5L453.77,156.5z"/>
	<path fill="#FFFFFF" d="M506.004,310.705c-0.018-3.619,1.815-6.561,4.095-6.57l70.148-0.3c2.278-0.01,4.14,2.917,4.156,6.535l0,0
		c0.019,3.619-1.816,6.561-4.096,6.57l-70.147,0.3C507.882,317.25,506.021,314.324,506.004,310.705L506.004,310.705z"/>
	<path fill="#10E3E8" d="M511.81,287.745c-0.018-3.619,1.678-6.56,3.783-6.569l64.857-0.277c2.105-0.008,3.828,2.918,3.846,6.537
		l0,0c0.018,3.619-1.677,6.56-3.784,6.569l-64.855,0.277C513.547,294.29,511.826,291.364,511.81,287.745L511.81,287.745z"/>
	<path fill="#FFFFFF" d="M453.712,265.058c-0.017-3.619,3.044-6.565,6.836-6.582l116.742-0.499c3.794-0.016,6.881,2.904,6.897,6.523
		l0,0c0.018,3.619-3.044,6.566-6.836,6.582l-116.742,0.499C456.817,271.598,453.729,268.677,453.712,265.058L453.712,265.058z"/>
	<path fill="#B2B2B2" d="M453.609,243.215c-0.018-3.619,3.043-6.566,6.836-6.583l116.742-0.499c3.794-0.017,6.881,2.905,6.897,6.523
		l0,0c0.017,3.619-3.045,6.566-6.836,6.583l-116.743,0.5C456.714,249.755,453.626,246.834,453.609,243.215L453.609,243.215z"/>
	<path fill="#F4ED9A" d="M305.966,243.847c-0.017-3.619,3.043-6.566,6.836-6.582l116.742-0.5c3.792-0.016,6.88,2.904,6.897,6.523
		l0,0c0.017,3.619-3.043,6.566-6.836,6.583l-116.742,0.499C309.07,250.386,305.983,247.465,305.966,243.847L305.966,243.847z"/>
	<path fill="#FFFFFF" d="M306.068,265.689c-0.018-3.619,3.043-6.565,6.836-6.582l116.742-0.499c3.791-0.016,6.881,2.905,6.896,6.523
		l0,0c0.018,3.619-3.043,6.566-6.835,6.582l-116.742,0.5C309.173,272.229,306.085,269.308,306.068,265.689L306.068,265.689z"/>
	<path fill="#0FEA0F" d="M373.703,288.335c-0.018-3.619,3.043-6.565,6.836-6.582l116.742-0.499c3.793-0.016,6.881,2.905,6.896,6.523
		l0,0c0.019,3.619-3.043,6.566-6.836,6.582l-116.742,0.5C376.808,294.875,373.72,291.954,373.703,288.335L373.703,288.335z"/>
	<path fill="#E8103A" d="M235.215,288.928c-0.017-3.619,3.043-6.566,6.836-6.583l116.743-0.499c3.792-0.017,6.88,2.905,6.897,6.523
		l0,0c0.017,3.619-3.045,6.566-6.835,6.583l-116.743,0.499C238.32,295.467,235.232,292.546,235.215,288.928L235.215,288.928z"/>
	<path fill="#0FEA0F" d="M97.872,289.515c-0.017-3.619,3.043-6.565,6.836-6.582l116.742-0.499c3.793-0.016,6.881,2.905,6.898,6.523
		l0,0c0.017,3.619-3.043,6.565-6.836,6.582l-116.742,0.5C100.977,296.054,97.889,293.134,97.872,289.515L97.872,289.515z"/>
	<path fill="#E8C410" d="M365.799,311.305c-0.017-3.619,3.044-6.566,6.836-6.583l116.743-0.499c3.792-0.016,6.88,2.905,6.897,6.523
		l0,0c0.017,3.619-3.045,6.566-6.836,6.583l-116.743,0.499C368.904,317.844,365.816,314.923,365.799,311.305L365.799,311.305z"/>
	<path fill="#BE10E8" d="M228.456,311.892c-0.017-3.618,3.042-6.566,6.836-6.582l116.742-0.5c3.793-0.016,6.881,2.905,6.897,6.524
		l0,0c0.019,3.619-3.043,6.566-6.836,6.582l-116.742,0.499C231.561,318.432,228.473,315.51,228.456,311.892L228.456,311.892z"/>
	<path fill="#FFFFFF" d="M179.653,343.5c0,3.619-1.847,6.5-4.126,6.5h-70.149c-2.279,0-4.126-2.881-4.126-6.5l0,0
		c0-3.619,1.847-6.5,4.126-6.5h70.149C177.806,337,179.653,339.881,179.653,343.5L179.653,343.5z"/>
	<path fill="#10E3E8" d="M173.74,366c0,3.619-1.708,7-3.815,7h-64.858c-2.107,0-3.815-3.381-3.815-7l0,0c0-3.619,1.708-7,3.815-7
		h64.858C172.032,359,173.74,362.381,173.74,366L173.74,366z"/>
	<path fill="#FFFFFF" d="M231.729,389c0,3.619-3.074,7-6.867,7H108.119c-3.792,0-6.867-3.381-6.867-7l0,0c0-3.618,3.074-7,6.867-7
		h116.744C228.655,382,231.729,385.382,231.729,389L231.729,389z"/>
	<path fill="#B2B2B2" d="M231.729,410.5c0,3.619-3.074,6.5-6.867,6.5H108.119c-3.792,0-6.867-2.881-6.867-6.5l0,0
		c0-3.619,3.074-6.5,6.867-6.5h116.744C228.655,404,231.729,406.881,231.729,410.5L231.729,410.5z"/>
	<path fill="#F4ED9A" d="M379.375,410.5c0,3.619-3.074,6.5-6.868,6.5H255.764c-3.792,0-6.867-2.881-6.867-6.5l0,0
		c0-3.619,3.074-6.5,6.867-6.5h116.743C376.301,404,379.375,406.881,379.375,410.5L379.375,410.5z"/>
	<path fill="#FFFFFF" d="M379.375,389c0,3.619-3.074,7-6.868,7H255.764c-3.792,0-6.867-3.381-6.867-7l0,0c0-3.618,3.074-7,6.867-7
		h116.743C376.301,382,379.375,385.382,379.375,389L379.375,389z"/>
	<path fill="#0FEA0F" d="M311.847,366c0,3.619-3.073,7-6.867,7H188.236c-3.792,0-6.867-3.381-6.867-7l0,0c0-3.619,3.074-7,6.867-7
		H304.98C308.773,359,311.847,362.381,311.847,366L311.847,366z"/>
	<path fill="#E8103A" d="M450.336,366c0,3.619-3.074,7-6.867,7H326.726c-3.793,0-6.866-3.381-6.866-7l0,0c0-3.619,3.073-7,6.866-7
		h116.743C447.262,359,450.336,362.381,450.336,366L450.336,366z"/>
	<path fill="#0FEA0F" d="M587.681,366c0,3.619-3.072,7-6.866,7H464.07c-3.793,0-6.867-3.381-6.867-7l0,0c0-3.619,3.074-7,6.867-7
		h116.742C584.607,359,587.681,362.381,587.681,366L587.681,366z"/>
	<path fill="#E8C410" d="M319.859,343.5c0,3.619-3.074,6.5-6.867,6.5H196.248c-3.792,0-6.867-2.881-6.867-6.5l0,0
		c0-3.619,3.074-6.5,6.867-6.5h116.744C316.785,337,319.859,339.881,319.859,343.5L319.859,343.5z"/>
	<path fill="#BE10E8" d="M457.203,343.5c0,3.619-3.074,6.5-6.867,6.5H333.593c-3.793,0-6.867-2.881-6.867-6.5l0,0
		c0-3.619,3.074-6.5,6.867-6.5h116.743C454.129,337,457.203,339.881,457.203,343.5L457.203,343.5z"/>
</g>
</svg>
