<?xml version="1.0" encoding="utf-8"?>
<!-- Generator: Adobe Illustrator 16.0.0, SVG Export Plug-In . SVG Version: 6.00 Build 0)  -->
<!DOCTYPE svg PUBLIC "-//W3C//DTD SVG 1.1//EN" "http://www.w3.org/Graphics/SVG/1.1/DTD/svg11.dtd">
<svg version="1.1" id="Layer_1" xmlns="http://www.w3.org/2000/svg" xmlns:xlink="http://www.w3.org/1999/xlink" x="0px" y="0px"
	 width="1000px" height="1000px" viewBox="0 0 1000 1000" enable-background="new 0 0 1000 1000" xml:space="preserve">
<g>
	
		<image overflow="visible" opacity="0.35" width="580" height="804" xlink:href="5078C03E3D1C2266.png"  transform="matrix(1 0 0 1 76 75)">
	</image>
	<g>
		<linearGradient id="SVGID_1_" gradientUnits="userSpaceOnUse" x1="114.5" y1="470.5" x2="604" y2="470.5">
			<stop  offset="0" style="stop-color:#FF7B2C;stop-opacity:0.7"/>
			<stop  offset="0.2712" style="stop-color:#FF9D52;stop-opacity:0.7"/>
			<stop  offset="0.7662" style="stop-color:#FFD693;stop-opacity:0.7"/>
			<stop  offset="1" style="stop-color:#FFEDAC;stop-opacity:0.7"/>
		</linearGradient>
		<polygon fill="url(#SVGID_1_)" points="604,114 604,398.254 591.75,411.167 432,579.563 432,827 318,827 318,579.074 
			298.12,561.659 120.325,411.865 120.325,411.865 114.5,114 227,114 227,359.487 373.21,482.341 373.675,482.416 373.172,482.341 
			490,358.6 490,114 		"/>
	</g>
</g>
<g>
	
		<image overflow="visible" opacity="0.35" width="581" height="807" xlink:href="5078C03E3D1C226A.png"  transform="matrix(1 0 0 1 219 75)">
	</image>
	<g>
		
			<linearGradient id="SVGID_2_" gradientUnits="userSpaceOnUse" x1="739.8916" y1="892.0723" x2="1229.3867" y2="892.0723" gradientTransform="matrix(1 0.0087 -0.0087 1 -477.3242 -428.5098)">
			<stop  offset="0" style="stop-color:#FF7BB9;stop-opacity:0.7"/>
			<stop  offset="0.216" style="stop-color:#C27FC4;stop-opacity:0.7"/>
			<stop  offset="0.6041" style="stop-color:#5B85D8;stop-opacity:0.7"/>
			<stop  offset="0.8737" style="stop-color:#1989E4;stop-opacity:0.7"/>
			<stop  offset="1" style="stop-color:#008BE9;stop-opacity:0.7"/>
		</linearGradient>
		<polygon fill="url(#SVGID_2_)" points="747.349,117.824 744.671,402.076 732.299,414.891 570.968,581.995 568.638,829.08 
			454.643,828.162 456.976,580.586 437.261,563.011 260.885,411.787 260.885,411.787 257.869,113.881 370.365,114.787 
			368.05,360.274 513.096,484.302 513.562,484.38 513.06,484.301 631.049,361.505 633.354,116.906 		"/>
	</g>
</g>
<g>
	
		<image overflow="visible" opacity="0.35" width="581" height="807" xlink:href="5078C03E3D1C226D.png"  transform="matrix(1 0 0 1 357 75)">
	</image>
	<g>
		
			<linearGradient id="SVGID_3_" gradientUnits="userSpaceOnUse" x1="877.8857" y1="890.8701" x2="1367.3818" y2="890.8701" gradientTransform="matrix(1 0.0087 -0.0087 1 -477.3242 -428.5098)">
			<stop  offset="3.515625e-04" style="stop-color:#FFA694"/>
			<stop  offset="0.2162" style="stop-color:#C2B19E"/>
			<stop  offset="0.6042" style="stop-color:#5BC4B0"/>
			<stop  offset="0.8738" style="stop-color:#19CFBB"/>
			<stop  offset="1" style="stop-color:#00D4BF"/>
		</linearGradient>
		<polygon fill="url(#SVGID_3_)" points="885.349,117.824 882.671,402.076 870.299,414.891 708.968,581.995 706.638,829.08 
			592.643,828.162 594.976,580.586 575.261,563.011 398.885,411.787 398.885,411.787 395.869,113.881 508.365,114.787 
			506.051,360.274 651.096,484.302 651.562,484.38 651.06,484.301 769.049,361.505 771.354,116.906 		"/>
	</g>
</g>
<g>
	
		<image overflow="visible" opacity="0.35" width="1168" height="856" xlink:href="5078C03E3D1C226E.png"  transform="matrix(1 0 0 1 -156 87)">
	</image>
	<g>
		<polygon fill="none" points="-117.179,509.037 765.5,125.612 959.62,507.049 76.941,890.474 		"/>
		<text transform="matrix(1.0819 0 0 1 460.5957 330.0913)"><tspan x="0" y="0" fill="#000500" font-family="'Copperplate'" font-size="72">Custom </tspan><tspan x="-141.623" y="86.4" fill="#000500" font-family="'Copperplate'" font-size="72">WordPress </tspan><tspan x="-153.252" y="172.8" fill="#000500" font-family="'Copperplate'" font-size="72">Plugins</tspan></text>
	</g>
</g>
</svg>
