<?xml version="1.0" encoding="utf-8"?>
<!-- Generator: Adobe Illustrator 16.0.0, SVG Export Plug-In . SVG Version: 6.00 Build 0)  -->
<!DOCTYPE svg PUBLIC "-//W3C//DTD SVG 1.1//EN" "http://www.w3.org/Graphics/SVG/1.1/DTD/svg11.dtd">
<svg version="1.1" id="Layer_1" xmlns="http://www.w3.org/2000/svg" xmlns:xlink="http://www.w3.org/1999/xlink" x="0px" y="0px"
	 width="1000px" height="1000px" viewBox="0 0 1000 1000" enable-background="new 0 0 1000 1000" xml:space="preserve">
<g>
	<g>
		
			<image overflow="visible" opacity="0.35" width="538" height="538" xlink:href="39F764E5F0550262.png"  transform="matrix(1 0 0 1 100 89)">
		</image>
		<g>
			<linearGradient id="SVGID_1_" gradientUnits="userSpaceOnUse" x1="362.0005" y1="575" x2="362.0005" y2="127.0005">
				<stop  offset="0" style="stop-color:#FF7BAC"/>
				<stop  offset="0.4901" style="stop-color:#9AB3D8;stop-opacity:0.853"/>
				<stop  offset="0.8373" style="stop-color:#58D8F4;stop-opacity:0.7488"/>
				<stop  offset="1" style="stop-color:#3FE6FF;stop-opacity:0.7"/>
			</linearGradient>
			<path fill="url(#SVGID_1_)" d="M586,560c0,8.284-6.716,15-15,15H153c-8.284,0-15-6.716-15-15V142c0-8.284,6.716-15,15-15h418
				c8.284,0,15,6.716,15,15V560z"/>
		</g>
	</g>
	<g>
		
			<image overflow="visible" opacity="0.35" width="538" height="538" xlink:href="39F764E5F0550266.png"  transform="matrix(1 0 0 1 406 305)">
		</image>
		<g>
			<linearGradient id="SVGID_2_" gradientUnits="userSpaceOnUse" x1="517.748" y1="827.2422" x2="818.2498" y2="306.7579">
				<stop  offset="0" style="stop-color:#54FFCD"/>
				<stop  offset="0.4285" style="stop-color:#2DB1BC;stop-opacity:0.7857"/>
				<stop  offset="0.8177" style="stop-color:#0D6FAE;stop-opacity:0.5912"/>
				<stop  offset="1" style="stop-color:#0056A9;stop-opacity:0.5"/>
			</linearGradient>
			<path fill="url(#SVGID_2_)" d="M892,776c0,8.284-6.716,15-15,15H459c-8.284,0-15-6.716-15-15V358c0-8.284,6.716-15,15-15h418
				c8.284,0,15,6.716,15,15V776z"/>
		</g>
	</g>
	<g>
		
			<image overflow="visible" opacity="0.35" width="538" height="538" xlink:href="39F764E5F0550261.png"  transform="matrix(1 0 0 1 269 175)">
		</image>
		<g>
			<linearGradient id="SVGID_3_" gradientUnits="userSpaceOnUse" x1="380.749" y1="697.2422" x2="681.2507" y2="176.7579">
				<stop  offset="3.515625e-04" style="stop-color:#FF6A7A"/>
				<stop  offset="0.2162" style="stop-color:#C26585"/>
				<stop  offset="0.6042" style="stop-color:#5B5D98"/>
				<stop  offset="0.8738" style="stop-color:#1958A4"/>
				<stop  offset="1" style="stop-color:#0056A9"/>
			</linearGradient>
			<path fill="url(#SVGID_3_)" d="M755,646c0,8.284-6.716,15-15,15H322c-8.284,0-15-6.716-15-15V228c0-8.284,6.716-15,15-15h418
				c8.284,0,15,6.716,15,15V646z"/>
		</g>
	</g>
</g>
<g>
	
		<image overflow="visible" opacity="0.35" width="854" height="503" xlink:href="39F764E5F0550263.png"  transform="matrix(1 0 0 1 133 232)">
	</image>
	<g>
		
			<rect x="185.536" y="372.998" transform="matrix(0.9563 0.2923 -0.2923 0.9563 163.3463 -140.8293)" fill="none" width="734.963" height="206.588"/>
		<text transform="matrix(1 0 0 1 228.6128 388.1875)"><tspan x="0" y="0" fill="#FFFFFF" font-family="'Copperplate'" font-size="72">Custom </tspan><tspan x="66.133" y="86.4" fill="#FFFFFF" font-family="'Copperplate'" font-size="72">WordPress </tspan><tspan x="333.391" y="172.8" fill="#FFFFFF" font-family="'Copperplate'" font-size="72">Themes</tspan></text>
	</g>
</g>
</svg>
